<svg xmlns="http://www.w3.org/2000/svg" width="640" height="360" viewBox="0 0 640 360" role="img" aria-label="Samsung WindFree Comfort 2.5 kW">
  <defs>
    <linearGradient id="bg" x1="0" y1="0" x2="1" y2="1">
      <stop offset="0" stop-color="#e8fff6"/>
      <stop offset="1" stop-color="#d9f0ff"/>
    </linearGradient>
    <filter id="shadow" x="-20%" y="-30%" width="140%" height="170%">
      <feDropShadow dx="0" dy="18" stdDeviation="18" flood-color="#0a493b" flood-opacity=".18"/>
    </filter>
  </defs>
  <rect width="640" height="360" rx="34" fill="url(#bg)"/>
  <circle cx="522" cy="92" r="92" fill="#ffffff" opacity=".55"/>
  <circle cx="98" cy="268" r="86" fill="#10a56a" opacity=".09"/>
  <g filter="url(#shadow)">
    <rect x="80" y="92" width="480" height="130" rx="32" fill="#fff"/>
    <rect x="110" y="122" width="420" height="16" rx="8" fill="#edf5f3"/>
    <rect x="120" y="168" width="400" height="20" rx="10" fill="#1f2f2b" opacity=".1"/>
    <path d="M134 178h372" stroke="#0c2e26" stroke-opacity=".26" stroke-width="8" stroke-linecap="round"/>
    <g fill="#10a56a" opacity=".5">
      <circle cx="148" cy="119" r="3"/><circle cx="170" cy="119" r="3"/><circle cx="192" cy="119" r="3"/>
      <circle cx="214" cy="119" r="3"/><circle cx="236" cy="119" r="3"/><circle cx="258" cy="119" r="3"/>
    </g>
  </g>
  <path d="M168 254c58-38 122-38 190 0" fill="none" stroke="#36b8f2" stroke-width="10" stroke-linecap="round" opacity=".28"/>
  <path d="M248 282c44-25 92-25 144 0" fill="none" stroke="#10a56a" stroke-width="8" stroke-linecap="round" opacity=".3"/>
  <text x="88" y="288" font-family="Inter, Arial, sans-serif" font-size="34" font-weight="900" fill="#0c2e26">Samsung</text>
  <text x="88" y="319" font-family="Inter, Arial, sans-serif" font-size="22" font-weight="800" fill="#05724c">WindFree Comfort 2.5 kW</text>
</svg>
